<svg width="65" height="64" viewBox="0 0 65 64" fill="none" xmlns="http://www.w3.org/2000/svg">
<path d="M32.5001 26.6666C29.5667 26.6666 27.0556 25.6221 24.9667 23.5333C22.8779 21.4444 21.8334 18.9333 21.8334 15.9999C21.8334 13.0666 22.8779 10.5555 24.9667 8.46659C27.0556 6.3777 29.5667 5.33325 32.5001 5.33325C35.4334 5.33325 37.9445 6.3777 40.0334 8.46659C42.1223 10.5555 43.1667 13.0666 43.1667 15.9999C43.1667 18.9333 42.1223 21.4444 40.0334 23.5333C37.9445 25.6221 35.4334 26.6666 32.5001 26.6666ZM32.5001 21.3333C33.9667 21.3333 35.2223 20.811 36.2667 19.7666C37.3112 18.7221 37.8334 17.4666 37.8334 15.9999C37.8334 14.5333 37.3112 13.2777 36.2667 12.2333C35.2223 11.1888 33.9667 10.6666 32.5001 10.6666C31.0334 10.6666 29.7779 11.1888 28.7334 12.2333C27.689 13.2777 27.1667 14.5333 27.1667 15.9999C27.1667 17.4666 27.689 18.7221 28.7334 19.7666C29.7779 20.811 31.0334 21.3333 32.5001 21.3333ZM11.1667 58.6666V40.5999C11.1667 39.0888 11.5445 37.6999 12.3001 36.4333C13.0556 35.1666 14.1001 34.1777 15.4334 33.4666C17.7001 32.311 20.2667 31.3333 23.1334 30.5333C26.0001 29.7332 29.1223 29.3333 32.5001 29.3333C35.8779 29.3333 39.0001 29.7332 41.8667 30.5333C44.7334 31.3333 47.3001 32.311 49.5667 33.4666C50.9001 34.1777 51.9445 35.1666 52.7001 36.4333C53.4556 37.6999 53.8334 39.0888 53.8334 40.5999V53.3332C53.8334 54.7999 53.3112 56.0555 52.2668 57.0999C51.2223 58.1444 49.9668 58.6666 48.5001 58.6666H26.5001C24.4556 58.6666 22.7223 57.9555 21.3001 56.5332C19.8779 55.111 19.1667 53.3777 19.1667 51.3332C19.1667 49.2888 19.8779 47.5555 21.3001 46.1333C22.7223 44.711 24.4556 43.9999 26.5001 43.9999H34.0334L38.1667 35.1999C37.2779 35.0221 36.3667 34.8888 35.4334 34.7999C34.5001 34.711 33.5223 34.6666 32.5001 34.6666C29.3001 34.6666 26.4556 35.0555 23.9667 35.8333C21.4779 36.611 19.4556 37.4221 17.9001 38.2666C17.4556 38.4888 17.1112 38.811 16.8667 39.2332C16.6223 39.6555 16.5001 40.111 16.5001 40.5999V58.6666H11.1667ZM26.5001 53.3332H29.7001L31.5667 49.3332H26.5001C25.9667 49.3332 25.5001 49.5332 25.1001 49.9333C24.7001 50.3332 24.5001 50.7999 24.5001 51.3332C24.5001 51.8666 24.7001 52.3332 25.1001 52.7332C25.5001 53.1332 25.9667 53.3332 26.5001 53.3332ZM35.5667 53.3332H48.5001V40.5999C48.5001 40.111 48.3779 39.6555 48.1334 39.2332C47.889 38.811 47.5667 38.4888 47.1667 38.2666C46.6334 37.9999 46.0556 37.7221 45.4334 37.4333C44.8112 37.1444 44.1445 36.8666 43.4334 36.5999L35.5667 53.3332Z" fill="white"/>
</svg>
