<svg width="65" height="64" viewBox="0 0 65 64" fill="none" xmlns="http://www.w3.org/2000/svg">
<path d="M6.30008 26.6667C6.1223 26 6.00008 25.3333 5.93341 24.6667C5.86675 24 5.83341 23.3111 5.83341 22.6C5.83341 18.4222 7.23342 14.9444 10.0334 12.1667C12.8334 9.38889 16.3223 8 20.5001 8C22.7667 8 24.9556 8.48889 27.0667 9.46667C29.1779 10.4444 30.989 11.8222 32.5001 13.6C34.0112 11.8222 35.8112 10.4444 37.9001 9.46667C39.989 8.48889 42.189 8 44.5001 8C48.6779 8 52.1668 9.38889 54.9668 12.1667C57.7668 14.9444 59.1668 18.4222 59.1668 22.6V22.7333C58.3223 21.9778 57.4112 21.3222 56.4334 20.7667C55.4556 20.2111 54.4112 19.7556 53.3001 19.4C52.6779 17.5778 51.5667 16.1111 49.9668 15C48.3667 13.8889 46.5445 13.3333 44.5001 13.3333C42.589 13.3333 40.7445 13.9 38.9668 15.0333C37.189 16.1667 35.5445 17.8222 34.0334 20H30.9667C29.5001 17.8667 27.8556 16.2222 26.0334 15.0667C24.2112 13.9111 22.3667 13.3333 20.5001 13.3333C17.8779 13.3333 15.6667 14.2333 13.8667 16.0333C12.0667 17.8333 11.1667 20.0222 11.1667 22.6C11.1667 23.3111 11.2334 23.9889 11.3667 24.6333C11.5001 25.2778 11.7001 25.9556 11.9667 26.6667H6.30008ZM32.5001 56L24.0334 48.4C22.8334 47.2889 21.7223 46.2667 20.7001 45.3333C19.6779 44.4 18.7223 43.5111 17.8334 42.6667H25.6334C26.6556 43.5556 27.7334 44.5111 28.8667 45.5333C30.0001 46.5556 31.2112 47.6444 32.5001 48.8C33.2556 48.1778 33.9556 47.5778 34.6001 47C35.2445 46.4222 35.8779 45.8444 36.5001 45.2667C37.1223 45.9333 37.7779 46.5444 38.4668 47.1C39.1556 47.6556 39.9001 48.1556 40.7001 48.6L32.5001 56ZM48.5001 45.3333C47.7445 45.3333 47.1112 45.0778 46.6001 44.5667C46.089 44.0556 45.8334 43.4222 45.8334 42.6667C45.8334 41.9111 46.089 41.2778 46.6001 40.7667C47.1112 40.2556 47.7445 40 48.5001 40C49.2556 40 49.889 40.2556 50.4001 40.7667C50.9112 41.2778 51.1668 41.9111 51.1668 42.6667C51.1668 43.4222 50.9112 44.0556 50.4001 44.5667C49.889 45.0778 49.2556 45.3333 48.5001 45.3333ZM45.8334 37.3333V24H51.1668V37.3333H45.8334ZM3.16675 37.3333V32H15.0334L19.7001 25.1333C19.9667 24.7333 20.289 24.4444 20.6667 24.2667C21.0445 24.0889 21.4556 24 21.9001 24C22.3445 24 22.7556 24.1 23.1334 24.3C23.5112 24.5 23.8334 24.8 24.1001 25.2L28.6334 32H32.7668C32.6779 32.4444 32.6112 32.8778 32.5667 33.3C32.5223 33.7222 32.5001 34.1778 32.5001 34.6667C32.5001 35.1556 32.5223 35.6111 32.5667 36.0333C32.6112 36.4556 32.6779 36.8889 32.7668 37.3333H27.1667C26.7223 37.3333 26.3001 37.2222 25.9001 37C25.5001 36.7778 25.189 36.4889 24.9667 36.1333L21.8334 31.4667L18.7001 36.1333C18.4779 36.4889 18.1667 36.7778 17.7667 37C17.3667 37.2222 16.9445 37.3333 16.5001 37.3333H3.16675Z" fill="white"/>
</svg>
